<svg width="400" height="593" viewBox="0 0 400 593" fill="none" xmlns="http://www.w3.org/2000/svg">
<mask id="mask0_26_56" style="mask-type:alpha" maskUnits="userSpaceOnUse" x="0" y="0" width="400" height="593">
<rect width="400" height="593" rx="16" fill="url(#paint0_linear_26_56)"/>
<rect width="400" height="593" rx="16" stroke="#19182B"/>
</mask>
<g mask="url(#mask0_26_56)">
<rect width="400" height="593" rx="16" fill="url(#paint1_linear_26_56)"/>
<rect width="400" height="593" rx="16" stroke="#19182B"/>
<g filter="url(#filter0_d_26_56)">
<path d="M-192 237C-192 222.641 -180.359 211 -166 211H215C229.359 211 241 222.641 241 237V474C241 488.359 229.359 500 215 500H-166C-180.359 500 -192 488.359 -192 474V237Z" fill="#242742"/>
</g>
<g filter="url(#filter1_d_26_56)">
<path d="M-176 237C-176 230.925 -171.075 226 -165 226H214C220.075 226 225 230.925 225 237V474C225 480.075 220.075 485 214 485H-165C-171.075 485 -176 480.075 -176 474V237Z" fill="url(#paint2_linear_26_56)"/>
</g>
<mask id="mask1_26_56" style="mask-type:alpha" maskUnits="userSpaceOnUse" x="-176" y="226" width="401" height="259">
<path d="M-176 237C-176 230.925 -171.075 226 -165 226H214C220.075 226 225 230.925 225 237V474C225 480.075 220.075 485 214 485H-165C-171.075 485 -176 480.075 -176 474V237Z" fill="url(#paint3_linear_26_56)"/>
</mask>
<g mask="url(#mask1_26_56)">
<circle cx="214" cy="470" r="158" fill="url(#paint4_linear_26_56)"/>
<circle cx="-39.5542" cy="191.446" r="158" transform="rotate(-135 -39.5542 191.446)" fill="url(#paint5_linear_26_56)"/>
</g>
<g filter="url(#filter2_d_26_56)">
<path d="M129 126C129 119.925 133.925 115 140 115H551C557.075 115 562 119.925 562 126V355C562 361.075 557.075 366 551 366H140C133.925 366 129 361.075 129 355V126Z" fill="url(#paint6_linear_26_56)"/>
</g>
<path d="M129 126C129 119.925 133.925 115 140 115H225V366H140C133.925 366 129 361.075 129 355V126Z" fill="url(#paint7_linear_26_56)"/>
<path d="M143 165.5C143 163.567 144.567 162 146.5 162H207.5C209.433 162 211 163.567 211 165.5C211 167.433 209.433 169 207.5 169H146.5C144.567 169 143 167.433 143 165.5Z" fill="#BABBDB"/>
<path d="M143 185.5C143 183.567 144.567 182 146.5 182H200.5C202.433 182 204 183.567 204 185.5C204 187.433 202.433 189 200.5 189H146.5C144.567 189 143 187.433 143 185.5Z" fill="#BABBDB"/>
<path d="M143 205.5C143 203.567 144.567 202 146.5 202H207.5C209.433 202 211 203.567 211 205.5C211 207.433 209.433 209 207.5 209H146.5C144.567 209 143 207.433 143 205.5Z" fill="#BABBDB"/>
<path d="M143 225.5C143 223.567 144.567 222 146.5 222H185.5C187.433 222 189 223.567 189 225.5C189 227.433 187.433 229 185.5 229H146.5C144.567 229 143 227.433 143 225.5Z" fill="#BABBDB"/>
<path d="M129 126C129 119.925 133.925 115 140 115H551C557.075 115 562 119.925 562 126V146H129V126Z" fill="#242742"/>
<circle cx="151.5" cy="130.5" r="6.5" fill="#FF6464"/>
<circle cx="173.5" cy="130.5" r="6.5" fill="#FF9255"/>
<circle cx="195.5" cy="130.5" r="6.5" fill="#6BD5A8"/>
<path d="M246 97C246 94.7908 247.791 93 250 93H340C342.209 93 344 94.7908 344 97V219C344 221.209 342.209 223 340 223H250C247.791 223 246 221.209 246 219V97Z" fill="white"/>
<mask id="mask2_26_56" style="mask-type:alpha" maskUnits="userSpaceOnUse" x="246" y="93" width="98" height="130">
<path d="M246 97C246 94.7908 247.791 93 250 93H340C342.209 93 344 94.7908 344 97V219C344 221.209 342.209 223 340 223H250C247.791 223 246 221.209 246 219V97Z" fill="white"/>
</mask>
<g mask="url(#mask2_26_56)">
<path fill-rule="evenodd" clip-rule="evenodd" d="M354.121 121.878C355.293 123.049 355.293 124.949 354.122 126.121L328.847 151.411C324.499 155.762 317.446 155.762 313.098 151.411C311.094 149.406 307.842 149.406 305.838 151.411L288.406 168.853C285.021 172.241 279.53 172.241 276.144 168.853C275.102 167.811 273.412 167.811 272.37 168.853L240.122 201.121C238.951 202.293 237.051 202.293 235.879 201.122C234.707 199.951 234.707 198.051 235.878 196.879L268.126 164.612C271.511 161.224 277.002 161.224 280.388 164.612C281.43 165.655 283.12 165.655 284.162 164.612L301.594 147.17C305.942 142.819 312.994 142.819 317.342 147.17C319.347 149.176 322.598 149.176 324.603 147.17L349.878 121.879C351.049 120.707 352.949 120.707 354.121 121.878Z" fill="url(#paint8_linear_26_56)"/>
</g>
<path d="M295 243C295 240.791 296.791 239 299 239H419C421.209 239 423 240.791 423 243V387C423 389.209 421.209 391 419 391H299C296.791 391 295 389.209 295 387V243Z" fill="white"/>
<path fill-rule="evenodd" clip-rule="evenodd" d="M359.5 347C377.449 347 392 332.449 392 314.5C392 296.551 377.449 282 359.5 282C341.551 282 327 296.551 327 314.5C327 332.449 341.551 347 359.5 347ZM359.5 361C385.181 361 406 340.181 406 314.5C406 288.819 385.181 268 359.5 268C333.819 268 313 288.819 313 314.5C313 340.181 333.819 361 359.5 361Z" fill="url(#paint9_linear_26_56)"/>
<path d="M342.609 309.719C342.609 311.99 343.198 313.786 344.375 315.109C345.552 316.422 347.156 317.078 349.188 317.078C351.073 317.078 352.547 316.406 353.609 315.062C354.682 313.719 355.219 312.042 355.219 310.031H354.047C354.047 311.177 353.729 312.089 353.094 312.766C352.458 313.443 351.667 313.781 350.719 313.781C349.708 313.781 348.958 313.443 348.469 312.766C347.979 312.078 347.734 311.073 347.734 309.75C347.734 308.24 347.979 307.156 348.469 306.5C348.969 305.833 349.708 305.5 350.688 305.5C351.74 305.5 352.557 305.932 353.141 306.797C353.724 307.661 354.016 309.208 354.016 311.438L354.156 312.062C354.156 315.365 353.432 317.708 351.984 319.094C350.536 320.479 348.49 321.167 345.844 321.156H345.141V325.125H345.953C350.203 325.083 353.448 323.932 355.688 321.672C357.938 319.401 359.062 316.344 359.062 312.5V311.688C359.062 308.229 358.286 305.729 356.734 304.188C355.182 302.635 353.177 301.859 350.719 301.859C348.25 301.859 346.281 302.573 344.812 304C343.344 305.427 342.609 307.333 342.609 309.719Z" fill="#242742"/>
<path d="M369.922 325H374.75V302.25H370.234L360.125 316.812V320.25H377.266V316.359H372.328L371.516 316.438H365.016L369.844 308.875H370V318.469L369.922 319.016V325Z" fill="#242742"/>
</g>
<defs>
<filter id="filter0_d_26_56" x="-224" y="203" width="497" height="353" filterUnits="userSpaceOnUse" color-interpolation-filters="sRGB">
<feFlood flood-opacity="0" result="BackgroundImageFix"/>
<feColorMatrix in="SourceAlpha" type="matrix" values="0 0 0 0 0 0 0 0 0 0 0 0 0 0 0 0 0 0 127 0" result="hardAlpha"/>
<feOffset dy="24"/>
<feGaussianBlur stdDeviation="16"/>
<feComposite in2="hardAlpha" operator="out"/>
<feColorMatrix type="matrix" values="0 0 0 0 0 0 0 0 0 0 0 0 0 0 0 0 0 0 0.1 0"/>
<feBlend mode="normal" in2="BackgroundImageFix" result="effect1_dropShadow_26_56"/>
<feBlend mode="normal" in="SourceGraphic" in2="effect1_dropShadow_26_56" result="shape"/>
</filter>
<filter id="filter1_d_26_56" x="-208" y="218" width="465" height="323" filterUnits="userSpaceOnUse" color-interpolation-filters="sRGB">
<feFlood flood-opacity="0" result="BackgroundImageFix"/>
<feColorMatrix in="SourceAlpha" type="matrix" values="0 0 0 0 0 0 0 0 0 0 0 0 0 0 0 0 0 0 127 0" result="hardAlpha"/>
<feOffset dy="24"/>
<feGaussianBlur stdDeviation="16"/>
<feComposite in2="hardAlpha" operator="out"/>
<feColorMatrix type="matrix" values="0 0 0 0 0 0 0 0 0 0 0 0 0 0 0 0 0 0 0.1 0"/>
<feBlend mode="normal" in2="BackgroundImageFix" result="effect1_dropShadow_26_56"/>
<feBlend mode="normal" in="SourceGraphic" in2="effect1_dropShadow_26_56" result="shape"/>
</filter>
<filter id="filter2_d_26_56" x="97" y="107" width="497" height="315" filterUnits="userSpaceOnUse" color-interpolation-filters="sRGB">
<feFlood flood-opacity="0" result="BackgroundImageFix"/>
<feColorMatrix in="SourceAlpha" type="matrix" values="0 0 0 0 0 0 0 0 0 0 0 0 0 0 0 0 0 0 127 0" result="hardAlpha"/>
<feOffset dy="24"/>
<feGaussianBlur stdDeviation="16"/>
<feComposite in2="hardAlpha" operator="out"/>
<feColorMatrix type="matrix" values="0 0 0 0 0 0 0 0 0 0 0 0 0 0 0 0 0 0 0.1 0"/>
<feBlend mode="normal" in2="BackgroundImageFix" result="effect1_dropShadow_26_56"/>
<feBlend mode="normal" in="SourceGraphic" in2="effect1_dropShadow_26_56" result="shape"/>
</filter>
<linearGradient id="paint0_linear_26_56" x1="400" y1="-3.21644e-05" x2="-8.15816e-06" y2="593" gradientUnits="userSpaceOnUse">
<stop stop-color="#FF6A3A"/>
<stop offset="1" stop-color="#FF527B"/>
</linearGradient>
<linearGradient id="paint1_linear_26_56" x1="400" y1="-3.21644e-05" x2="-8.15816e-06" y2="593" gradientUnits="userSpaceOnUse">
<stop stop-color="#FF6A3A"/>
<stop offset="1" stop-color="#FF527B"/>
</linearGradient>
<linearGradient id="paint2_linear_26_56" x1="-86.5" y1="222" x2="221.5" y2="485" gradientUnits="userSpaceOnUse">
<stop stop-color="#FF3E83"/>
<stop offset="1" stop-color="#FF9F2E"/>
</linearGradient>
<linearGradient id="paint3_linear_26_56" x1="-86.5" y1="222" x2="221.5" y2="485" gradientUnits="userSpaceOnUse">
<stop stop-color="#FF3E83"/>
<stop offset="1" stop-color="#FF9F2E"/>
</linearGradient>
<linearGradient id="paint4_linear_26_56" x1="214" y1="312" x2="214" y2="628" gradientUnits="userSpaceOnUse">
<stop stop-color="#FFB443"/>
<stop offset="1" stop-color="#FF5B64" stop-opacity="0"/>
</linearGradient>
<linearGradient id="paint5_linear_26_56" x1="-39.5542" y1="33.4457" x2="-39.5542" y2="349.446" gradientUnits="userSpaceOnUse">
<stop stop-color="#FFB443"/>
<stop offset="1" stop-color="#FF5B64" stop-opacity="0"/>
</linearGradient>
<linearGradient id="paint6_linear_26_56" x1="345.5" y1="115" x2="345.5" y2="366" gradientUnits="userSpaceOnUse">
<stop stop-color="#F8F8F8"/>
<stop offset="1" stop-color="#EEEEEE"/>
</linearGradient>
<linearGradient id="paint7_linear_26_56" x1="177" y1="115" x2="177" y2="366" gradientUnits="userSpaceOnUse">
<stop stop-color="#CACBE8"/>
<stop offset="1" stop-color="#EEEEEE"/>
<stop offset="1" stop-color="#CACBE8"/>
</linearGradient>
<linearGradient id="paint8_linear_26_56" x1="352.349" y1="120.512" x2="244.229" y2="200.332" gradientUnits="userSpaceOnUse">
<stop stop-color="#FF9049"/>
<stop offset="1" stop-color="#FF5E5E"/>
</linearGradient>
<linearGradient id="paint9_linear_26_56" x1="359.5" y1="268" x2="359.5" y2="361" gradientUnits="userSpaceOnUse">
<stop stop-color="#FF6A3D"/>
<stop offset="1" stop-color="#FF5B66"/>
</linearGradient>
</defs>
</svg>
